<?xml version="1.0" standalone="no"?>
<!DOCTYPE svg PUBLIC "-//W3C//DTD SVG 20010904//EN"
 "http://www.w3.org/TR/2001/REC-SVG-20010904/DTD/svg10.dtd">
<svg version="1.0" xmlns="http://www.w3.org/2000/svg"
 width="949.000000pt" height="949.000000pt" viewBox="0 0 949.000000 949.000000"
 preserveAspectRatio="xMidYMid meet">
<metadata>
Created by potrace 1.11, written by Peter Selinger 2001-2013
</metadata>
<g transform="translate(0.000000,949.000000) scale(0.100000,-0.100000)"
fill="#000000" stroke="none">
<path d="M4415 9479 c-1339 -95 -2557 -741 -3402 -1806 -261 -328 -512 -762
-671 -1158 -501 -1250 -449 -2652 144 -3860 351 -718 904 -1359 1561 -1811
975 -673 2132 -953 3310 -804 1224 156 2336 789 3120 1777 261 328 512 762
671 1158 501 1250 449 2652 -144 3860 -351 718 -904 1359 -1561 1811 -891 615
-1959 908 -3028 833z m2798 -2337 l487 -487 -965 -965 c-531 -531 -965 -969
-965 -975 0 -5 413 -423 917 -927 l918 -918 -483 -482 -482 -483 -923 923
-922 922 -980 -980 -980 -980 -490 490 -490 490 980 980 980 980 -928 928
-927 927 482 483 483 482 927 -927 928 -928 968 968 c532 532 969 967 972 967
3 0 224 -219 493 -488z"/>
</g>
</svg>
