<?xml version="1.0" encoding="utf-8"?>
<svg width="100px" height="100px" viewBox="0 0 100px 100px" version="1.1" xmlns:xlink="http://www.w3.org/1999/xlink" xmlns="http://www.w3.org/2000/svg">
  <desc>Created with Lunacy</desc>
  <g id="logo">
    <g id="Group">
      <path d="M3.8 11.6667L5.6 8L1.73333 9.26667L0 7.26667L6.33333 5.46667L8.73333 0L10.4667 2L8.8 5.33333L12.3333 4.13333L14.0667 6.13333L8.33333 7.73333L5.73333 13.8L3.8 11.6667Z" transform="translate(76.33334 14.2)" id="Path" fill="#EFEFF4" stroke="none" />
      <path d="M0 1L1.66666 0L3.2 2.66667L1.53333 3.66667L0 1Z" transform="translate(85.53333 26.46667)" id="Path" fill="#EFEFF4" stroke="none" />
      <path d="M8.06667 8.06667C8.53333 8.13333 9.06667 8 9.66667 7.8C10.3333 7.53333 10.8 7.26667 11.2667 6.93333C11.6 6.6 11.8667 6.2 12 5.8C12.1333 5.4 12.1333 4.93333 12.1333 4.53333C12.0667 4.13333 12 3.73333 11.8667 3.33333L10.6667 0L0 3.86667L0.866667 6.2L4.73333 4.8L5.13333 5.86667C5.26667 6.26667 5.46667 6.6 5.73333 6.93333C6 7.26667 6.33333 7.53333 6.73333 7.73333C7.13333 7.93333 7.6 8 8.06667 8.06667ZM9.73333 4.8C9.6 5.13333 9.26667 5.33333 8.8 5.53333Q8.1 5.83333 7.6 5.53333C7.26667 5.33333 7.06667 5.13333 6.93333 4.8L6.66667 4.06667L9.46667 3.06667L9.73333 3.86667C9.86667 4.2 9.86667 4.46667 9.73333 4.8Z" transform="translate(85.26667 30)" id="Shape" fill="#EFEFF4" fill-rule="evenodd" stroke="none" />
      <path d="M2.66667 5.33333L0.666667 6L0.933333 8.6L11.8667 4.66667L11.5333 1.46667L0 0L0.266667 2.53333L2.4 2.8L2.66667 5.33333ZM4.46667 2.86667L9.33333 3.33333L4.66667 4.8L4.46667 2.86667Z" transform="translate(87.93333 41.53333)" id="Shape" fill="#EFEFF4" fill-rule="evenodd" stroke="none" />
      <path d="M0.4 4.86667L7.6 3.26667L7.6 3.2L0.733334 2.26667L1.06667 0L12.2667 1.6L11.8667 4.4L4.6 6L4.6 6.06667L11.5333 7L11.2 9.2L0 7.6L0.4 4.86667Z" transform="translate(87.73333 51.8)" id="Path" fill="#EFEFF4" stroke="none" />
      <path d="M7.11045 8.46667C7.37712 8.4 7.64379 8.26667 7.91045 8.13333C8.11045 7.93333 8.31045 7.73333 8.44379 7.53333C8.57712 7.26667 8.64379 7 8.57712 6.73333C8.51045 6.46667 8.31045 6.2 7.97712 6C7.64379 5.8 7.37712 5.8 7.11045 5.93333C6.84379 6.06667 6.44379 6.26667 6.04379 6.53333C5.77712 6.66667 5.57712 6.86667 5.24379 7C4.91046 7.13333 4.64379 7.26667 4.31046 7.4C3.97712 7.46667 3.57712 7.53333 3.24379 7.46667C2.84379 7.46667 2.44379 7.33333 2.04379 7.06667C1.51046 6.8 1.11046 6.46667 0.777123 6.06667C0.44379 5.66667 0.24379 5.26667 0.110457 4.8C-0.0228764 4.33333 -0.0228764 3.93333 0.0437903 3.46667C0.110457 3 0.24379 2.6 0.44379 2.2C0.777123 1.6 1.17712 1.13333 1.64379 0.733333C2.11046 0.333333 2.64379 0.133333 3.04379 0L4.11046 2.06667C3.77712 2.13333 3.44379 2.33333 3.17712 2.53333C2.91046 2.73333 2.64379 3 2.51046 3.26667C2.37712 3.53333 2.31046 3.8 2.37712 4.13333C2.44379 4.4 2.64379 4.66667 2.97712 4.8C3.31046 5 3.64379 5 3.91046 4.86667C4.24379 4.73333 4.57712 4.53333 5.04379 4.2C5.31046 4 5.57712 3.8 5.91046 3.66667C6.17712 3.53333 6.51045 3.4 6.84379 3.33333C7.17712 3.26667 7.51045 3.26667 7.84379 3.33333C8.17712 3.4 8.57712 3.53333 8.97712 3.73333C9.51045 4 9.97712 4.4 10.2438 4.8C10.5771 5.2 10.7105 5.6 10.8438 6.06667C10.9771 6.53333 10.9771 6.93333 10.8438 7.33333C10.7771 7.73333 10.6438 8.13333 10.4438 8.53333C10.1771 9.06667 9.77712 9.53333 9.37712 9.86667C8.97712 10.2 8.51045 10.4667 8.04379 10.5333L7.11045 8.46667Z" transform="translate(83.62288 65.73333)" id="Path" fill="#EFEFF4" stroke="none" />
      <path d="M0.9 6.69167C1.3 7.35833 1.83333 7.95833 2.5 8.55833C3.16667 9.15833 3.83333 9.69167 4.43333 9.89167C5.16667 10.225 5.76667 10.425 6.43333 10.4917C7.03333 10.5583 7.63333 10.4917 8.23333 10.2917C8.83333 10.0917 9.3 9.69167 9.76667 9.225C10.2333 8.69167 10.5667 8.15833 10.7 7.55833Q10.9 6.65833 10.7 5.75833C10.5667 5.15833 10.3 4.55833 9.9 3.89167C9.5 3.225 8.96667 2.625 8.3 2.025Q7.3 1.125 6.3 0.625Q5.3 0.125 4.3 0.025Q3.4 -0.075 2.5 0.225C1.9 0.425 1.36667 0.758333 0.966667 1.29167C0.566667 1.825 0.233333 2.35833 0.1 2.95833C-0.0333333 3.49167 -0.0333333 4.15833 0.1 4.75833C0.233333 5.425 0.5 6.025 0.9 6.69167ZM5.36667 7.49167C5.03333 7.225 4.63333 6.95833 4.3 6.625C3.9 6.29167 3.63333 5.95833 3.3 5.55833C3.03333 5.225 2.83333 4.89167 2.7 4.55833C2.56667 4.29167 2.5 3.95833 2.5 3.69167C2.56667 3.425 2.63333 3.15833 2.83333 2.95833C3.03333 2.75833 3.3 2.625 3.56667 2.55833C3.9 2.49167 4.23333 2.49167 4.5 2.625C4.76667 2.75833 5.16667 2.89167 5.5 3.15833C5.83333 3.425 6.23333 3.69167 6.56667 4.025C6.9 4.35833 7.23333 4.69167 7.5 5.025C7.76667 5.35833 7.96667 5.69167 8.1 6.025C8.23333 6.29167 8.3 6.625 8.3 6.89167C8.23333 7.15833 8.16667 7.425 7.96667 7.625C7.76667 7.825 7.5 7.95833 7.23333 8.025C6.96667 8.09167 6.7 8.09167 6.36667 7.95833C6.1 7.89167 5.7 7.69167 5.36667 7.49167Z" transform="translate(77.5 74.375)" id="Shape" fill="#EFEFF4" fill-rule="evenodd" stroke="none" />
      <path d="M0.225 4.95833C0.025 4.425 -0.0416667 3.89167 0.025 3.425C0.0916666 2.89167 0.225 2.425 0.491667 1.95833C0.758333 1.49167 1.225 1.09167 1.825 0.691667C2.425 0.291667 2.95833 0.0916667 3.49167 0.025C4.025 -0.0416667 4.49167 0.025 5.025 0.225C5.49166 0.425 5.95833 0.691667 6.35833 1.09167C6.75833 1.49167 7.15833 1.95833 7.49166 2.49167L11.3583 8.49167L9.225 9.89167L5.49166 4.09167C5.29167 3.825 5.15833 3.55833 4.95833 3.35833C4.75833 3.15833 4.625 2.95833 4.425 2.89167C4.225 2.75833 4.025 2.69167 3.825 2.69167C3.625 2.69167 3.425 2.75833 3.225 2.89167C3.025 3.025 2.89167 3.225 2.825 3.35833C2.75833 3.55833 2.75833 3.75833 2.75833 3.95833C2.75833 4.15833 2.825 4.425 2.95833 4.69167C3.09167 4.95833 3.225 5.225 3.425 5.49167L7.15833 11.2917L5.025 12.6917L1.15833 6.69167C0.625 6.025 0.358333 5.49167 0.225 4.95833Z" transform="translate(69.04166 81.50833)" id="Path" fill="#EFEFF4" stroke="none" />
      <path d="M3.06667 9.46666L0 0.866666L2.33333 0L5.4 8.6L7.33333 7.86666L8.06667 9.93333L1.8 12.2L1.06667 10.1333L3.06667 9.46666Z" transform="translate(62 85.93333)" id="Path" fill="#EFEFF4" stroke="none" />
      <path d="M2.53333 0.533333L3.06667 5.26667L5.66667 5L5.13333 0.266667L7.66667 0L8.93333 11.2667L6.4 11.5333L5.93333 7.26667L3.33333 7.53333L3.8 11.8L1.26667 12.0667L0 0.8L2.53333 0.533333Z" transform="translate(50.66667 87.93333)" id="Path" fill="#EFEFF4" stroke="none" />
      <path d="M2.73333 2.73333L2.8 0.6L0.2 0L0 11.6667L3.13333 12.4667L8.6 2.2L6.13333 1.53333L5.2 3.4L2.73333 2.73333ZM4.46667 5.2L2.26667 9.6L2.6 4.73333L4.46667 5.2Z" transform="translate(36.06667 86.33334)" id="Shape" fill="#EFEFF4" fill-rule="evenodd" stroke="none" />
      <path d="M7.93333 1.4L6.86667 8.66667L6.93333 8.66667L10.2667 2.6L12.2667 3.73333L6.73333 13.6L4.26667 12.2L5.4 4.8L5.33333 4.8L1.93333 10.9333L0 9.86667L5.53333 0L7.93333 1.4Z" transform="translate(22.53333 81.8)" id="Path" fill="#EFEFF4" stroke="none" />
      <path d="M6.66667 3.66667L7.73333 1.86667L5.86667 0L0 10.0667L2.33333 12.2667L12.1333 6L10.2667 4.2L8.53333 5.4L6.66667 3.66667ZM6.86667 6.6L2.8 9.4L5.46667 5.26667L6.86667 6.6Z" transform="translate(14.6 74.86667)" id="Shape" fill="#EFEFF4" fill-rule="evenodd" stroke="none" />
      <path d="M3 5.06667L10.6 0L12 2.06667L4.4 7.13333L5.53333 8.86667L3.73333 10.0667L0 4.53333L1.8 3.33333L3 5.06667Z" transform="translate(6.8 70.4)" id="Path" fill="#EFEFF4" stroke="none" />
      <path d="M6.82405 0.0261537Q5.72405 0.126154 4.42405 0.626154C3.55738 0.959487 2.89071 1.29282 2.15738 1.75949C1.55738 2.22615 1.02405 2.69282 0.690712 3.22615C0.290712 3.69282 0.090712 4.29282 0.0240453 4.89282C-0.0426213 5.49282 0.0240453 6.15949 0.290712 6.75949C0.557379 7.42615 0.890712 7.95949 1.35738 8.35949C1.82405 8.75949 2.35738 9.02615 2.95738 9.22615C3.55738 9.35949 4.29071 9.42615 5.02404 9.35949C5.75738 9.29282 6.55738 9.09282 7.42405 8.75949C8.29071 8.42615 9.02405 8.09282 9.62404 7.62615C10.224 7.15949 10.7574 6.69282 11.0907 6.15949C11.424 5.62615 11.6907 5.02615 11.7574 4.42615C11.8907 3.82615 11.824 3.15949 11.5574 2.55949C11.2907 1.95949 10.9574 1.42615 10.4907 1.02615C10.024 0.626154 9.49071 0.359487 8.89071 0.159487C8.29071 0.0261537 7.55738 -0.040513 6.82405 0.0261537ZM4.09071 3.69282C4.49071 3.42615 4.89071 3.29282 5.35738 3.09282C5.82405 2.89282 6.22405 2.75949 6.75738 2.69282C7.15738 2.62615 7.55738 2.55949 7.89071 2.62615C8.22404 2.69282 8.49071 2.75949 8.75738 2.89282C9.02404 3.02615 9.22404 3.22615 9.29071 3.49282C9.35738 3.75949 9.35738 4.02615 9.29071 4.29282C9.15738 4.55949 9.02404 4.75949 8.75738 5.02615C8.49071 5.22615 8.22404 5.49282 7.82405 5.69282C7.42405 5.95949 7.02404 6.09282 6.55738 6.29282C6.09071 6.49282 5.62405 6.62615 5.22405 6.69282C4.82405 6.75949 4.42405 6.75949 4.09071 6.75949C3.75738 6.69282 3.49071 6.62615 3.22405 6.49282C2.95738 6.35949 2.82405 6.15949 2.69071 5.89282Q2.59071 5.49282 2.69071 5.09282C2.75738 4.82615 2.89071 4.55949 3.15738 4.35949C3.42405 4.15949 3.69071 3.89282 4.09071 3.69282Z" transform="translate(2.775955 60.77385)" id="Shape" fill="#EFEFF4" fill-rule="evenodd" stroke="none" />
      <path d="M11.6 5.6L0.333333 6.93333L0 4.33333L8.86667 3.26667L8.53333 0.266667L10.8667 0L11.6 5.6Z" transform="translate(0.6 51.53333)" id="Path" fill="#EFEFF4" stroke="none" />
      <path d="M7.66667 3.46667L11.7333 3.8L11.5333 6.33333L7.46667 6L0 8.2L0.266667 5.46667L5.06667 4.53333L5.06667 4.53333L0.533333 2.73333L0.8 0L7.66667 3.46667Z" transform="translate(0.2 41.6)" id="Path" fill="#EFEFF4" stroke="none" />
      <path d="M9.66667 3.4L11.8 3.6L12.6 1L1 0L0 3.06667L9.86667 9.26667L10.6667 6.86667L8.86667 5.8L9.66667 3.4ZM7.06667 4.93333L2.8 2.46667L7.66667 3.06667L7.06667 4.93333Z" transform="translate(2.4 32.66667)" id="Shape" fill="#EFEFF4" fill-rule="evenodd" stroke="none" />
      <path d="M12.1333 8.46667L4.93333 6.86667L4.93333 6.93333L10.7333 10.6667L9.46667 12.6L0 6.4L1.53333 4.06667L8.8 5.73333L8.8 5.66667L2.93333 1.86667L4.13333 0L13.6 6.2L12.1333 8.46667Z" transform="translate(6.333333 19.73333)" id="Path" fill="#EFEFF4" stroke="none" />
      <path d="M6.8 12.3333L0 3.26667L4.4 0L5.73333 1.8L3.33333 3.6L4.66667 5.4L6.86667 3.73333L8.13333 5.4L5.93333 7.06667L7.4 9L10 7.06667L11.4 8.93333L6.8 12.3333Z" transform="translate(18.13333 8.533334)" id="Path" fill="#EFEFF4" stroke="none" />
      <path d="M6.4 8.6L7.66667 10.2667L10.0667 9.2L2.93333 0L0 1.33333L2.13333 12.8L4.46667 11.7333L4.06667 9.66667L6.4 8.6ZM3.6 7.66667L2.53333 2.86667L5.33333 6.86667L3.6 7.66667Z" transform="translate(28.26667 4)" id="Shape" fill="#EFEFF4" fill-rule="evenodd" stroke="none" />
      <path d="M5 2.53333L6.8 11.5333L4.33333 12.0667L2.53333 3.06667L0.466667 3.46667L0 1.33333L6.53333 0L7 2.13333L5 2.53333Z" transform="translate(36.86666 0.6)" id="Path" fill="#EFEFF4" stroke="none" />
      <path d="M0.2 11.4L0 0.0666667L5.46667 0L5.53333 2.26667L2.53333 2.33333L2.6 4.53333L5.4 4.46667L5.46667 6.6L2.66667 6.66667L2.73333 9.06667L5.93333 9L6 11.3333L0.2 11.4Z" transform="translate(47.33333 0.2666667)" id="Path" fill="#EFEFF4" stroke="none" />
      <path d="M4.13333 7.33333L4.6 12.0667L7.33333 12.6667L6.53333 7.33333C6.73333 7.26667 6.93333 7.26667 7.13333 7.13333C7.33333 7 7.53333 6.86667 7.73333 6.66667C7.93333 6.46667 8.13333 6.26667 8.26667 5.93333C8.46667 5.6 8.6 5.26667 8.66667 4.86667C8.93333 3.8 8.8 2.86667 8.33333 2.2C7.86667 1.53333 7.06667 1.06667 6 0.8L2.46667 0L0 11.0667L2.4 11.6L3.4 7.2L4.13333 7.33333ZM6.2 3.66667C6.2 3.86667 6.2 4.13333 6.13333 4.4C6.06667 4.93333 5.8 5.26667 5.6 5.33333C5.26667 5.53333 4.93333 5.53333 4.6 5.46667L3.86667 5.33333L4.46667 2.53333L5.26667 2.73333C5.4 2.73333 5.53333 2.8 5.66667 2.86667L6 3.2C6.06667 3.33333 6.2 3.46667 6.2 3.66667Z" transform="translate(55.46667 0.8)" id="Shape" fill="#EFEFF4" fill-rule="evenodd" stroke="none" />
      <path d="M4.06667 8.93333L2.26667 12.6L0 11.4667L1.8 7.8L2.4 0L4.86667 1.2L4 6L4 6L7.33334 2.4L9.8 3.6L4.06667 8.93333Z" transform="translate(66 3.466667)" id="Path" fill="#EFEFF4" stroke="none" />
    </g>
    <g id="Group" transform="translate(28.69568 29.56522)">
      <path d="M4.20233e-13 -1.67569e-16L12.7378 0.0288839L12.8472 48.2984L0.109455 48.2695L4.20233e-13 -1.67569e-16Z" transform="matrix(0.7071068 -0.7071068 0.7071068 0.7071068 0.5777245 9.139392)" id="Rectangle" fill="#EFEFF4" stroke="none" />
      <path d="M0.109455 0.0288839L12.8472 6.70275e-16L12.7378 48.2695L0 48.2984L0.109455 0.0288839Z" transform="matrix(0.7071068 0.7071068 -0.7071068 0.7071068 34.69271 0.02939773)" id="Rectangle" fill="#EFEFF4" stroke="none" />
    </g>
  </g>
</svg>